<?xml version="1.0" encoding="UTF-8"?> <svg xmlns="http://www.w3.org/2000/svg" width="1046" height="425" viewBox="0 0 1046 425" fill="none"><path d="M261 137.38V330.23H292.6V137.38H261Z" fill="#686A6C"></path><path d="M334.22 137.36V239.79L365.86 202.61V137.36H334.22ZM396.66 233.94L480.46 137.36H440.78L334.22 262.52V330.23H365.86V243.93L440.5 330.23H481.86L396.66 233.94Z" fill="#686A6C"></path><path d="M631.56 244.34C626.204 237.264 619.126 231.677 611 228.11C600.854 223.873 590.426 220.347 579.79 217.56C572.073 215.585 564.474 213.174 557.03 210.34C551.852 208.376 547.166 205.304 543.3 201.34C539.687 197.553 537.883 192.697 537.89 186.77C537.89 178.103 540.757 171.437 546.49 166.77C552.223 162.103 559.623 159.79 568.69 159.83C578.69 159.83 586.733 162.33 592.82 167.33C598.907 172.33 602.24 178.33 602.82 185.33H637.8C636.513 169.05 629.9 156.24 617.96 146.9C606.02 137.56 590.713 132.893 572.04 132.9C558.9 132.9 547.337 135.12 537.35 139.56C527.363 144 519.58 150.393 514 158.74C508.453 167.06 505.68 176.767 505.68 187.86C505.68 199.9 508.453 209.52 514 216.72C519.216 223.693 526.143 229.204 534.11 232.72C544.072 236.838 554.323 240.22 564.78 242.84C572.745 244.772 580.591 247.162 588.28 250C593.645 252.035 598.479 255.259 602.42 259.43C606.22 263.51 608.117 268.783 608.11 275.25C608.218 279.12 607.451 282.964 605.867 286.496C604.282 290.028 601.922 293.157 598.96 295.65C592.84 300.93 584.33 303.563 573.43 303.55C562.883 303.55 554.697 300.867 548.87 295.5C543.063 290.192 539.528 282.849 539 275H505.16C505.16 286.113 508.12 295.827 514.04 304.14C519.96 312.453 528.097 318.88 538.45 323.42C548.81 327.96 560.477 330.23 573.45 330.23C587.13 330.23 599.013 327.593 609.1 322.32C619.187 317.047 626.853 310.063 632.1 301.37C637.267 293.033 640.003 283.418 640 273.61C640 261.397 637.187 251.64 631.56 244.34Z" fill="#686A6C"></path><path d="M677.48 137.08V204.77H709.12V162.89H784V137.08H677.48ZM677.48 304.42V330.23H784V304.42H677.48ZM677.48 219.5V289.69H709.12V245.31H775.72V219.5H677.48Z" fill="#686A6C"></path><path d="M877.16 0V31.67H1014.33V393.24H31.67V31.67H222.61V0H0V424.89H1046V0H877.16ZM855.06 31.67V0H244.71V31.67H855.06Z" fill="#686A6C"></path><path d="M941.01 200.52L869.8 271.88V316.69L985.75 200.52H941.01Z" fill="#686A6C"></path><path d="M855.06 0H823.39V331.12H855.06V0Z" fill="#686A6C"></path><path d="M104.99 200.52L176.2 271.88V316.69L60.25 200.52H104.99Z" fill="#686A6C"></path><path d="M222.61 0H190.94V331.12H222.61V0Z" fill="#686A6C"></path></svg> 