<?xml version="1.0" standalone="no"?>
<!DOCTYPE svg PUBLIC "-//W3C//DTD SVG 20010904//EN"
 "http://www.w3.org/TR/2001/REC-SVG-20010904/DTD/svg10.dtd">
<svg version="1.0" xmlns="http://www.w3.org/2000/svg"
 width="700.000000pt" height="700.000000pt" viewBox="0 0 700.000000 700.000000"
 preserveAspectRatio="xMidYMid meet">
<metadata>
Created by potrace 1.14, written by Peter Selinger 2001-2017
</metadata>
<g transform="translate(0.000000,700.000000) scale(0.100000,-0.100000)"
fill="#000000" stroke="none">
<path d="M2797 6993 c-2 -5 -3 -1308 -3 -2898 l1 -2890 243 -1 c133 0 243 2
244 5 1 3 2 1308 3 2899 l2 2892 -243 0 c-134 0 -245 -3 -247 -7z"/>
<path d="M3733 4103 l2 -2898 230 -1 c127 -1 237 0 245 2 13 3 15 333 15 2899
l0 2895 -247 0 -246 0 1 -2897z"/>
<path d="M0 2905 l0 -2905 3500 0 3500 0 0 2905 0 2905 -1323 0 -1323 0 0
-260 1 -260 1075 0 1076 0 -1 -2382 0 -2383 -3027 -2 -3028 -1 0 2384 0 2384
1104 0 1103 0 0 260 0 260 -1329 0 -1328 0 0 -2905z"/>
<path d="M900 2879 c0 -3 32 -34 72 -70 39 -35 82 -73 94 -84 60 -55 162 -146
184 -165 14 -12 65 -58 114 -103 49 -45 98 -90 110 -100 18 -15 153 -138 190
-172 6 -6 76 -68 156 -140 80 -71 163 -146 185 -167 22 -20 49 -45 61 -55 12
-10 59 -53 105 -95 46 -42 94 -85 105 -95 30 -26 168 -150 223 -200 25 -24 48
-43 51 -43 3 0 6 128 5 285 l0 286 -51 47 c-63 57 -211 191 -234 212 -15 13
-164 148 -194 175 -6 6 -54 48 -106 95 -124 111 -175 157 -221 200 -20 19 -78
71 -128 115 l-90 80 -316 0 c-173 0 -315 -3 -315 -6z"/>
<path d="M5443 2850 c-21 -19 -76 -69 -122 -110 -46 -41 -98 -88 -115 -104
-88 -80 -118 -107 -191 -171 -44 -39 -84 -75 -90 -81 -5 -6 -59 -56 -120 -110
-60 -54 -115 -103 -121 -108 -20 -19 -168 -152 -198 -178 l-29 -24 1 -270 c1
-324 0 -322 10 -308 4 5 57 55 117 110 61 54 115 103 121 109 37 34 186 168
224 201 24 21 51 46 60 54 9 8 58 53 110 100 52 47 101 92 110 100 9 8 56 51
106 94 49 44 94 85 99 90 6 6 73 67 150 136 77 69 145 129 151 135 6 5 50 46
99 90 49 44 96 87 105 95 9 8 57 52 108 98 51 45 91 83 90 83 -2 1 -146 2
-320 3 l-317 1 -38 -35z"/>
</g>
</svg>
